<svg width="124" height="118" viewBox="0 0 124 118" fill="none" xmlns="http://www.w3.org/2000/svg">
<g clip-path="url(#clip0_22_326)">
<path fill-rule="evenodd" clip-rule="evenodd" d="M68.322 1.70928C64.1069 -0.569758 59.0267 -0.56976 54.8116 1.70928L34.7834 12.538L15.3913 24.4686C11.3101 26.9795 8.76998 31.379 8.6361 36.169L8 58.9282L8.6361 81.6875C8.76998 86.4775 11.3101 90.877 15.3913 93.3879L34.7834 105.318L54.8116 116.147C59.0267 118.426 64.1069 118.426 68.322 116.147L88.3502 105.318L107.742 93.3879C111.824 90.877 114.364 86.4775 114.497 81.6875L115.134 58.9282L114.497 36.169C114.364 31.379 111.824 26.9795 107.742 24.4686L88.3502 12.538L68.322 1.70928ZM35.6257 35.5081L54.7649 45.0777C60.0308 47.7107 66.1252 48.1509 71.7147 46.302L87.9864 40.9198C88.8135 40.6462 89.7234 40.9204 90.2616 41.6055C90.9892 42.5315 90.7976 43.8774 89.8404 44.5635L75.6539 54.7326C71.2691 57.8756 68.6684 62.9397 68.6684 68.3346V78.651C68.6684 80.963 66.9837 82.9301 64.6992 83.2855C61.9428 83.7143 59.4238 81.657 59.2932 78.8706L58.3755 59.2946C58.3394 58.5232 58.0985 57.7754 57.6776 57.1279L57.2763 56.5104C56.3552 55.0934 54.5481 54.5447 52.9947 55.2105C52.0028 55.6355 51.2648 56.4974 50.9974 57.5428L49.7928 62.2516C49.4379 63.639 48.1878 64.6096 46.7557 64.6096C45.1432 64.6096 43.7938 63.3863 43.6359 61.7816L42.6967 52.2324V51.8446C42.6967 50.1191 42.1465 48.4386 41.1261 47.0472C40.6873 46.4487 40.1684 45.9133 39.5839 45.456L32.7281 40.0905C31.7803 39.3488 31.4315 38.073 31.8701 36.9522C32.4539 35.4602 34.1927 34.7916 35.6257 35.5081Z" fill="#FF0011"/>
</g>
<defs>
<clipPath id="clip0_22_326">
<rect width="123.93" height="117.997" fill="white"/>
</clipPath>
</defs>
</svg>
